<?xml version="1.0" standalone="no"?>
<!DOCTYPE svg PUBLIC "-//W3C//DTD SVG 20010904//EN"
 "http://www.w3.org/TR/2001/REC-SVG-20010904/DTD/svg10.dtd">
<svg version="1.0" xmlns="http://www.w3.org/2000/svg"
 width="500.000000pt" height="500.000000pt" viewBox="0 0 500.000000 500.000000"
 preserveAspectRatio="xMidYMid meet">
<metadata>
Created by potrace 1.15, written by Peter Selinger 2001-2017
</metadata>
<g transform="translate(0.000000,500.000000) scale(0.100000,-0.100000)"
fill="#000000" stroke="none">
<path d="M0 2500 l0 -2500 2500 0 2500 0 0 2500 0 2500 -2500 0 -2500 0 0
-2500z m4850 0 l0 -2350 -1080 0 c-1073 0 -1080 0 -1080 20 0 19 -7 20 -125
20 l-125 0 0 155 0 155 1030 0 1030 0 0 2000 0 2000 -2000 0 -2000 0 0 -2000
0 -2000 795 0 795 0 0 -155 0 -155 -55 0 c-48 0 -55 -2 -55 -20 0 -20 -7 -20
-915 -20 l-915 0 0 2350 0 2350 2350 0 2350 0 0 -2350z m-470 0 l0 -1880 -95
0 c-57 0 -95 4 -95 10 0 6 -20 10 -45 10 l-45 0 0 705 0 705 -240 0 c-207 0
-240 -2 -240 -15 0 -12 13 -15 55 -15 l55 0 0 -281 0 -281 -35 31 c-47 41
-102 54 -210 49 -114 -6 -177 -32 -240 -99 -74 -79 -102 -165 -111 -334 -12
-225 46 -387 166 -467 24 -16 12 -17 -220 -17 -229 0 -243 1 -215 16 124 65
185 205 185 428 0 186 -34 297 -115 384 -66 71 -131 94 -247 89 -74 -4 -93 -8
-135 -34 -27 -16 -62 -51 -80 -78 l-33 -48 0 71 0 71 -225 0 c-193 0 -225 -2
-225 -15 0 -11 12 -15 50 -15 l50 0 0 -435 0 -435 -70 0 c-40 0 -70 4 -70 10
0 6 -22 10 -49 10 l-49 0 -4 338 c-5 388 -10 414 -85 489 -56 57 -125 77 -242
71 -125 -6 -178 -38 -235 -138 l-26 -45 0 348 0 347 -230 0 c-198 0 -230 -2
-230 -15 0 -11 12 -15 50 -15 l50 0 0 -690 0 -690 -50 0 c-27 0 -50 -4 -50
-10 0 -6 -37 -10 -90 -10 l-90 0 0 1880 0 1880 1880 0 1880 0 0 -1880z m-725
-1024 c22 -10 42 -29 57 -58 22 -41 23 -53 26 -314 2 -176 0 -286 -8 -312 -14
-56 -53 -99 -101 -114 -35 -10 -43 -9 -67 9 -51 38 -56 72 -57 373 0 306 9
368 61 409 32 25 43 26 89 7z m-1014 -46 c33 -45 41 -131 36 -400 -4 -266 -11
-316 -50 -357 -26 -29 -84 -31 -119 -3 -50 39 -61 87 -66 301 -7 296 13 400
89 463 40 34 84 32 110 -4z m-1174 -7 c16 -25 18 -60 18 -403 l0 -375 -37 -3
c-21 -2 -38 -7 -38 -13 0 -5 -16 -9 -35 -9 -19 0 -35 4 -35 9 0 6 -17 11 -37
13 l-38 3 0 315 0 315 33 68 c51 103 130 140 169 80z"/>
<path d="M1873 4055 c-168 -45 -271 -150 -319 -325 -27 -94 -27 -436 0 -530
62 -225 222 -340 471 -340 205 0 356 82 429 233 54 111 69 207 63 411 -3 114
-10 190 -21 229 -63 227 -221 338 -476 336 -52 0 -119 -7 -147 -14z m264 -229
c89 -46 126 -152 126 -361 0 -245 -48 -347 -179 -376 -63 -14 -147 -3 -190 26
-37 24 -72 84 -90 154 -25 98 -16 364 15 443 24 62 74 114 119 124 15 3 32 8
37 10 21 8 136 -6 162 -20z"/>
<path d="M2867 3889 l-216 -180 71 -89 71 -89 86 72 c47 40 94 78 104 86 16
13 17 -2 17 -278 l0 -290 -147 -3 -148 -3 -3 -107 -3 -108 421 0 421 0 -3 108
-3 107 -142 3 -143 3 0 474 0 475 -83 0 -83 0 -217 -181z"/>
<path d="M1000 2500 l0 -30 1500 0 1500 0 0 30 0 30 -1500 0 -1500 0 0 -30z"/>
</g>
</svg>
