<svg width="713" height="569" viewBox="0 0 713 569" fill="none" xmlns="http://www.w3.org/2000/svg">
<g clip-path="url(#clip0)">
<rect width="713" height="569" fill="black"/>
<path d="M314.92 652.18C331.65 638.85 340.88 618.82 339.34 599.22C337.16 571.57 315.71 551.94 287.93 540.29C277.76 536.02 267.08 532.55 257.56 527.27C234.58 514.52 235.65 494.57 225.15 475.12C196.88 422.72 118 460.93 69.4101 448.65C37.7901 440.66 15.6501 414.7 14.5401 386.53C14.4601 384.51 14.4501 382.38 13.2801 380.62C12.4701 379.41 11.1801 378.5 9.87012 377.69C-10.5799 364.99 -41.3199 369.69 -59.5599 383.32C-79.7299 398.4 -88.9599 421.58 -94.4199 444.12C-98.7799 462.11 -101.28 480.82 -96.9499 498.82C-85.2099 547.68 -27.9899 578.34 -4.12987 623.8C1.02013 633.62 4.58013 644.07 10.6901 653.47C26.2301 677.37 56.2601 691.47 86.2201 700.57C123.16 711.79 164.64 717.15 201.08 704.78C224.42 696.86 244.1 682.2 267.6 674.64C283.97 669.35 302.09 662.4 314.92 652.18Z" fill="url(#paint0_linear)"/>
<path d="M417.74 16.6499C412.13 35.3099 418.56 62.6199 433.11 77.17C447.65 91.72 470.69 99.45 492.68 97.17C508.54 95.52 523.16 89.1299 538.45 85.1199C553.74 81.1099 571.43 79.7699 584.71 87.4999C591.56 91.4799 597.09 97.7699 605.16 99.2099C612.41 100.51 619.99 97.3299 624.92 92.5199C629.84 87.7099 632.53 81.4899 634.59 75.2899C640.39 57.8799 642.04 39.4299 639.42 21.4499C637.58 8.82994 633.35 -4.04007 623.57 -13.4901C608.73 -27.8401 584.85 -31.2501 562.95 -34.2401C543.27 -36.9301 523.53 -39.9701 503.61 -39.8001C483.69 -39.6401 463.31 -36.0501 446.7 -26.4801C430.08 -16.9201 417.79 -0.700066 417.74 16.6499Z" fill="url(#paint1_linear)"/>
<g opacity="0.7">
<g opacity="0.7">
<path opacity="0.7" d="M348.17 -0.490005L601.7 -230" stroke="#969696" stroke-width="2" stroke-miterlimit="10" stroke-linecap="round" stroke-linejoin="round" stroke-dasharray="0.3 0.3"/>
<path opacity="0.7" d="M350.2 18.23L619.67 -226.1" stroke="#969696" stroke-width="2" stroke-miterlimit="10" stroke-linecap="round" stroke-linejoin="round" stroke-dasharray="0.3 0.3"/>
<path opacity="0.7" d="M358.34 31.26L635.44 -220.16" stroke="#969696" stroke-width="2" stroke-miterlimit="10" stroke-linecap="round" stroke-linejoin="round" stroke-dasharray="0.3 0.3"/>
<path opacity="0.7" d="M369.79 41.22L653.09 -215.97" stroke="#969696" stroke-width="2" stroke-miterlimit="10" stroke-linecap="round" stroke-linejoin="round" stroke-dasharray="0.3 0.3"/>
<path opacity="0.7" d="M378.72 53.53L670.89 -211.91" stroke="#969696" stroke-width="2" stroke-miterlimit="10" stroke-linecap="round" stroke-linejoin="round" stroke-dasharray="0.3 0.3"/>
<path opacity="0.7" d="M389.21 64.38L689.79 -208.88" stroke="#969696" stroke-width="2" stroke-miterlimit="10" stroke-linecap="round" stroke-linejoin="round" stroke-dasharray="0.3 0.3"/>
<path opacity="0.7" d="M399.61 75.31L704.25 -201.72" stroke="#969696" stroke-width="2" stroke-miterlimit="10" stroke-linecap="round" stroke-linejoin="round" stroke-dasharray="0.3 0.3"/>
<path opacity="0.7" d="M410.04 86.22L721.95 -197.57" stroke="#969696" stroke-width="2" stroke-miterlimit="10" stroke-linecap="round" stroke-linejoin="round" stroke-dasharray="0.3 0.3"/>
<path opacity="0.7" d="M420.79 96.83L736.34 -190.35" stroke="#969696" stroke-width="2" stroke-miterlimit="10" stroke-linecap="round" stroke-linejoin="round" stroke-dasharray="0.3 0.3"/>
<path opacity="0.7" d="M430.27 108.61L748.33 -180.89" stroke="#969696" stroke-width="2" stroke-miterlimit="10" stroke-linecap="round" stroke-linejoin="round" stroke-dasharray="0.3 0.3"/>
<path opacity="0.7" d="M441.04 119.21L761.86 -172.86" stroke="#969696" stroke-width="2" stroke-miterlimit="10" stroke-linecap="round" stroke-linejoin="round" stroke-dasharray="0.3 0.3"/>
<path opacity="0.7" d="M452.47 129.19L775.17 -164.64" stroke="#969696" stroke-width="2" stroke-miterlimit="10" stroke-linecap="round" stroke-linejoin="round" stroke-dasharray="0.3 0.3"/>
<path opacity="0.7" d="M462.1 140.84L773.4 -142.39" stroke="#969696" stroke-width="2" stroke-miterlimit="10" stroke-linecap="round" stroke-linejoin="round" stroke-dasharray="0.3 0.3"/>
</g>
<g opacity="0.7">
<path opacity="0.7" d="M497.6 129.7L751.14 -99.8101" stroke="#969696" stroke-width="2" stroke-miterlimit="10" stroke-linecap="round" stroke-linejoin="round" stroke-dasharray="0.3 0.3"/>
<path opacity="0.7" d="M499.63 148.41L769.1 -95.91" stroke="#969696" stroke-width="2" stroke-miterlimit="10" stroke-linecap="round" stroke-linejoin="round" stroke-dasharray="0.3 0.3"/>
<path opacity="0.7" d="M507.77 161.45L784.88 -89.9801" stroke="#969696" stroke-width="2" stroke-miterlimit="10" stroke-linecap="round" stroke-linejoin="round" stroke-dasharray="0.3 0.3"/>
<path opacity="0.7" d="M519.22 171.41L802.52 -85.78" stroke="#969696" stroke-width="2" stroke-miterlimit="10" stroke-linecap="round" stroke-linejoin="round" stroke-dasharray="0.3 0.3"/>
<path opacity="0.7" d="M528.15 183.71L820.32 -81.7301" stroke="#969696" stroke-width="2" stroke-miterlimit="10" stroke-linecap="round" stroke-linejoin="round" stroke-dasharray="0.3 0.3"/>
<path opacity="0.7" d="M538.64 194.57L839.22 -78.6901" stroke="#969696" stroke-width="2" stroke-miterlimit="10" stroke-linecap="round" stroke-linejoin="round" stroke-dasharray="0.3 0.3"/>
<path opacity="0.7" d="M549.04 205.49L853.68 -71.53" stroke="#969696" stroke-width="2" stroke-miterlimit="10" stroke-linecap="round" stroke-linejoin="round" stroke-dasharray="0.3 0.3"/>
<path opacity="0.7" d="M559.47 216.41L871.38 -67.3801" stroke="#969696" stroke-width="2" stroke-miterlimit="10" stroke-linecap="round" stroke-linejoin="round" stroke-dasharray="0.3 0.3"/>
<path opacity="0.7" d="M570.22 227.02L885.77 -60.16" stroke="#969696" stroke-width="2" stroke-miterlimit="10" stroke-linecap="round" stroke-linejoin="round" stroke-dasharray="0.3 0.3"/>
<path opacity="0.7" d="M579.7 238.8L897.76 -50.7101" stroke="#969696" stroke-width="2" stroke-miterlimit="10" stroke-linecap="round" stroke-linejoin="round" stroke-dasharray="0.3 0.3"/>
<path opacity="0.7" d="M590.47 249.4L911.29 -42.6801" stroke="#969696" stroke-width="2" stroke-miterlimit="10" stroke-linecap="round" stroke-linejoin="round" stroke-dasharray="0.3 0.3"/>
<path opacity="0.7" d="M601.9 259.37L924.61 -34.4501" stroke="#969696" stroke-width="2" stroke-miterlimit="10" stroke-linecap="round" stroke-linejoin="round" stroke-dasharray="0.3 0.3"/>
<path opacity="0.7" d="M611.53 271.03L922.83 -12.2001" stroke="#969696" stroke-width="2" stroke-miterlimit="10" stroke-linecap="round" stroke-linejoin="round" stroke-dasharray="0.3 0.3"/>
</g>
</g>
<g opacity="0.7">
<g opacity="0.7">
<path opacity="0.7" d="M-130 536.81L90.88 307.3" stroke="#969696" stroke-width="2" stroke-miterlimit="10" stroke-linecap="round" stroke-linejoin="round" stroke-dasharray="0.3 0.3"/>
<path opacity="0.7" d="M-128.23 555.53L106.53 311.2" stroke="#969696" stroke-width="2" stroke-miterlimit="10" stroke-linecap="round" stroke-linejoin="round" stroke-dasharray="0.3 0.3"/>
<path opacity="0.7" d="M-121.14 568.56L120.28 317.14" stroke="#969696" stroke-width="2" stroke-miterlimit="10" stroke-linecap="round" stroke-linejoin="round" stroke-dasharray="0.3 0.3"/>
<path opacity="0.7" d="M-111.16 578.52L135.65 321.34" stroke="#969696" stroke-width="2" stroke-miterlimit="10" stroke-linecap="round" stroke-linejoin="round" stroke-dasharray="0.3 0.3"/>
<path opacity="0.7" d="M-103.39 590.83L151.16 325.39" stroke="#969696" stroke-width="2" stroke-miterlimit="10" stroke-linecap="round" stroke-linejoin="round" stroke-dasharray="0.3 0.3"/>
<path opacity="0.7" d="M-94.25 601.68L167.62 328.43" stroke="#969696" stroke-width="2" stroke-miterlimit="10" stroke-linecap="round" stroke-linejoin="round" stroke-dasharray="0.3 0.3"/>
<path opacity="0.7" d="M-85.1802 612.61L180.22 335.58" stroke="#969696" stroke-width="2" stroke-miterlimit="10" stroke-linecap="round" stroke-linejoin="round" stroke-dasharray="0.3 0.3"/>
<path opacity="0.7" d="M-76.1001 623.52L195.64 339.73" stroke="#969696" stroke-width="2" stroke-miterlimit="10" stroke-linecap="round" stroke-linejoin="round" stroke-dasharray="0.3 0.3"/>
<path opacity="0.7" d="M-66.73 634.13L208.18 346.95" stroke="#969696" stroke-width="2" stroke-miterlimit="10" stroke-linecap="round" stroke-linejoin="round" stroke-dasharray="0.3 0.3"/>
<path opacity="0.7" d="M-58.4702 645.92L218.63 356.41" stroke="#969696" stroke-width="2" stroke-miterlimit="10" stroke-linecap="round" stroke-linejoin="round" stroke-dasharray="0.3 0.3"/>
<path opacity="0.7" d="M-49.0898 656.51L230.41 364.44" stroke="#969696" stroke-width="2" stroke-miterlimit="10" stroke-linecap="round" stroke-linejoin="round" stroke-dasharray="0.3 0.3"/>
<path opacity="0.7" d="M-39.1299 666.49L242.01 372.66" stroke="#969696" stroke-width="2" stroke-miterlimit="10" stroke-linecap="round" stroke-linejoin="round" stroke-dasharray="0.3 0.3"/>
<path opacity="0.7" d="M-30.75 678.14L240.47 394.91" stroke="#969696" stroke-width="2" stroke-miterlimit="10" stroke-linecap="round" stroke-linejoin="round" stroke-dasharray="0.3 0.3"/>
</g>
<g opacity="0.7">
<path opacity="0.7" d="M0.189941 667L221.07 437.49" stroke="#969696" stroke-width="2" stroke-miterlimit="10" stroke-linecap="round" stroke-linejoin="round" stroke-dasharray="0.3 0.3"/>
<path opacity="0.7" d="M1.95996 685.71L236.72 441.39" stroke="#969696" stroke-width="2" stroke-miterlimit="10" stroke-linecap="round" stroke-linejoin="round" stroke-dasharray="0.3 0.3"/>
<path opacity="0.7" d="M9.0498 698.75L250.46 447.33" stroke="#969696" stroke-width="2" stroke-miterlimit="10" stroke-linecap="round" stroke-linejoin="round" stroke-dasharray="0.3 0.3"/>
<path opacity="0.7" d="M19.02 708.71L265.84 451.52" stroke="#969696" stroke-width="2" stroke-miterlimit="10" stroke-linecap="round" stroke-linejoin="round" stroke-dasharray="0.3 0.3"/>
<path opacity="0.7" d="M26.7998 721.01L281.34 455.57" stroke="#969696" stroke-width="2" stroke-miterlimit="10" stroke-linecap="round" stroke-linejoin="round" stroke-dasharray="0.3 0.3"/>
<path opacity="0.7" d="M35.9399 731.87L297.81 458.61" stroke="#969696" stroke-width="2" stroke-miterlimit="10" stroke-linecap="round" stroke-linejoin="round" stroke-dasharray="0.3 0.3"/>
<path opacity="0.7" d="M45 742.8L310.41 465.77" stroke="#969696" stroke-width="2" stroke-miterlimit="10" stroke-linecap="round" stroke-linejoin="round" stroke-dasharray="0.3 0.3"/>
<path opacity="0.7" d="M54.0898 753.71L325.82 469.92" stroke="#969696" stroke-width="2" stroke-miterlimit="10" stroke-linecap="round" stroke-linejoin="round" stroke-dasharray="0.3 0.3"/>
<path opacity="0.7" d="M63.4497 764.32L338.36 477.14" stroke="#969696" stroke-width="2" stroke-miterlimit="10" stroke-linecap="round" stroke-linejoin="round" stroke-dasharray="0.3 0.3"/>
<path opacity="0.7" d="M71.7197 776.1L348.81 486.59" stroke="#969696" stroke-width="2" stroke-miterlimit="10" stroke-linecap="round" stroke-linejoin="round" stroke-dasharray="0.3 0.3"/>
<path opacity="0.7" d="M81.0898 786.7L360.59 494.63" stroke="#969696" stroke-width="2" stroke-miterlimit="10" stroke-linecap="round" stroke-linejoin="round" stroke-dasharray="0.3 0.3"/>
<path opacity="0.7" d="M91.0498 796.67L372.19 502.85" stroke="#969696" stroke-width="2" stroke-miterlimit="10" stroke-linecap="round" stroke-linejoin="round" stroke-dasharray="0.3 0.3"/>
<path opacity="0.7" d="M99.4399 808.33L370.65 525.1" stroke="#969696" stroke-width="2" stroke-miterlimit="10" stroke-linecap="round" stroke-linejoin="round" stroke-dasharray="0.3 0.3"/>
</g>
</g>
<g opacity="0.4248">
<g opacity="0.4248">
<path opacity="0.4248" d="M19.2601 -14.72C7.65015 -2.98998 6.91016 14.24 7.16016 29.77C7.37016 42.99 6.16016 57.55 -2.03984 68.5C-7.95984 76.41 -16.8799 81.01 -25.5098 85.36C-31.4898 88.37 -37.3598 91.53 -43.5798 94.02C-51.2999 97.11 -59.2698 99.78 -66.3998 104.13C-73.5299 108.47 -79.1498 114.54 -82.9098 122C-86.6398 129.41 -88.6198 137.6 -90.0498 145.73C-90.4098 147.76 -90.7098 149.81 -90.9998 151.85C-91.0698 152.36 -90.3098 152.59 -90.2098 152.07C-88.7198 143.9 -87.2698 135.65 -84.2998 127.86C-81.2698 119.94 -76.5498 112.78 -69.6998 107.66C-62.9798 102.64 -55.0598 99.65 -47.3098 96.64C-43.4698 95.15 -39.6298 93.65 -35.8998 91.87C-33.1399 90.55 -30.4498 89.07 -27.7198 87.68C-19.0598 83.3 -9.91985 79.06 -3.30984 71.73C5.06016 62.44 7.58016 49.75 8.10016 37.61C8.45016 29.4 7.81015 21.2 8.62015 13.01C9.40015 5.12002 11.3801 -2.85998 15.8701 -9.49998C17.0201 -11.2 18.3301 -12.77 19.7601 -14.22C20.0901 -14.55 19.5901 -15.05 19.2601 -14.72Z" fill="url(#paint2_linear)"/>
</g>
</g>
<g opacity="0.4248">
<g opacity="0.4248">
<path opacity="0.4248" d="M-73.0299 207.61C-73.3199 191.14 -69.5299 174.73 -62.1099 160.02C-54.5099 144.96 -43.3199 132.23 -29.4999 122.59C-14.8699 112.39 1.78012 104.73 14.0001 91.4101C19.2901 85.6401 23.7001 78.9001 25.9501 71.3501C28.6901 62.1301 27.4301 52.6001 25.6601 43.3301C23.8001 33.6201 21.3901 23.5601 23.3501 13.6801C24.8301 6.20008 29.3901 -1.13992 36.5501 -4.32992C38.2901 -5.09992 40.1801 -5.60992 42.0701 -5.81992C42.5401 -5.86992 42.5701 -6.59992 42.0701 -6.57992C34.6701 -6.28992 28.5601 -0.859924 25.2001 5.43008C20.8801 13.5301 21.2101 23.0801 22.5501 31.9001C24.0901 41.9701 27.1301 51.9401 26.5601 62.2201C26.0801 70.8001 22.6101 78.7901 17.5301 85.6401C6.55013 100.46 -10.2499 108.79 -25.3599 118.62C-32.7099 123.4 -39.6699 128.71 -45.7499 135.05C-51.3999 140.94 -56.3199 147.54 -60.3899 154.62C-68.5899 168.87 -73.4199 185.12 -73.9499 201.57C-74.0199 203.59 -73.9999 205.61 -73.9199 207.62C-73.8999 208.18 -73.0199 208.18 -73.0299 207.61Z" fill="url(#paint3_linear)"/>
</g>
</g>
<path d="M548.28 585.33C543.26 563.75 548.28 540.28 561.44 522.48C576.11 502.64 599.69 494.29 620.42 482.58C630.26 477.01 639.84 470.47 647.21 461.78C650.88 457.45 653.89 452.64 656.12 447.42C658.47 441.89 659.98 436.06 661.2 430.2C663.66 418.31 665.09 406.15 669.79 394.85C674.12 384.44 680.65 374.95 688.77 367.13C706.15 350.38 730.62 342.26 754.59 344.92C757.64 345.26 760.69 345.78 763.7 346.39C764.27 346.51 764.52 345.65 763.94 345.51C740.5 339.55 714.2 345.59 695.12 360.23C686.32 366.99 678.89 375.5 673.38 385.13C670.59 389.99 668.3 395.14 666.56 400.47C664.65 406.35 663.44 412.42 662.32 418.49C660.05 430.78 658.07 443.5 651.39 454.31C645.18 464.36 635.8 471.98 625.89 478.18C605.51 490.93 581.19 498.37 564.85 516.84C550.3 533.29 543.33 556.14 546.22 577.91C546.56 580.47 547.06 583 547.68 585.5C547.76 585.89 548.37 585.72 548.28 585.33Z" fill="url(#paint4_linear)"/>
<path d="M588.63 559.67C585.49 552.48 586.19 544.33 589.22 537.23C592.36 529.85 597.88 523.94 604.33 519.28C617.82 509.54 634.3 505.2 648.08 495.95C654.77 491.46 660.41 485.8 664.68 478.96C668.86 472.26 671.76 464.83 674 457.27C678.97 440.49 680.59 422.73 687.48 406.52C693.24 392.97 703.77 379.95 718.53 375.99C720.24 375.53 721.98 375.16 723.74 374.92C724.12 374.87 724.03 374.23 723.65 374.25C708.74 375.28 696.6 387.11 689.75 399.6C681.17 415.25 679.14 433.35 674.87 450.41C672.88 458.35 670.4 466.22 666.66 473.53C662.88 480.92 657.78 487.46 651.2 492.56C637.71 503.02 620.73 507.36 606.54 516.65C599.93 520.98 593.91 526.41 590.07 533.4C586.51 539.87 584.65 547.62 586.28 554.93C586.67 556.69 587.28 558.38 588.07 560.01C588.24 560.41 588.8 560.06 588.63 559.67Z" fill="url(#paint5_linear)"/>
<path d="M713.06 414.93C704.39 417.4 697.39 423.95 692.33 431.19C686.85 439.05 683.36 448.06 680.82 457.25C677.85 467.97 675.92 478.98 672.38 489.54C670.68 494.61 668.63 499.61 665.86 504.19C663.4 508.25 660.4 511.98 656.94 515.23C650.22 521.53 641.46 526.01 632.07 525.69C630.91 525.65 629.75 525.54 628.6 525.37C628.06 525.29 627.81 526.09 628.37 526.21C637.51 528.16 646.8 524.78 654.05 519.27C657.85 516.38 661.19 512.93 664.04 509.1C667.06 505.04 669.39 500.58 671.31 495.91C675.59 485.51 677.74 474.41 680.4 463.53C682.76 453.84 685.65 444.28 690.73 435.63C695.37 427.73 701.7 420.9 710.04 416.9C711.08 416.4 712.14 415.95 713.21 415.54C713.6 415.39 713.46 414.81 713.06 414.93Z" fill="url(#paint6_linear)"/>
<path d="M270.39 437.01C270.39 437.86 269.7 438.55 268.85 438.55C268 438.55 267.31 437.86 267.31 437.01C267.31 436.16 268 435.47 268.85 435.47C269.7 435.48 270.39 436.16 270.39 437.01Z" fill="white"/>
<path d="M394.55 94.97C395.4 94.97 396.09 94.2805 396.09 93.43C396.09 92.5795 395.4 91.89 394.55 91.89C393.699 91.89 393.01 92.5795 393.01 93.43C393.01 94.2805 393.699 94.97 394.55 94.97Z" fill="white"/>
<g opacity="0.7">
<path opacity="0.7" d="M154.06 316.91L374.94 87.4" stroke="#969696" stroke-width="2" stroke-miterlimit="10" stroke-linecap="round" stroke-linejoin="round" stroke-dasharray="0.3 0.3"/>
<path opacity="0.7" d="M155.83 335.63L390.59 91.3" stroke="#969696" stroke-width="2" stroke-miterlimit="10" stroke-linecap="round" stroke-linejoin="round" stroke-dasharray="0.3 0.3"/>
<path opacity="0.7" d="M162.919 348.66L404.329 97.24" stroke="#969696" stroke-width="2" stroke-miterlimit="10" stroke-linecap="round" stroke-linejoin="round" stroke-dasharray="0.3 0.3"/>
<path opacity="0.7" d="M172.899 358.62L419.709 101.44" stroke="#969696" stroke-width="2" stroke-miterlimit="10" stroke-linecap="round" stroke-linejoin="round" stroke-dasharray="0.3 0.3"/>
<path opacity="0.7" d="M180.669 370.93L435.219 105.49" stroke="#969696" stroke-width="2" stroke-miterlimit="10" stroke-linecap="round" stroke-linejoin="round" stroke-dasharray="0.3 0.3"/>
<path opacity="0.7" d="M189.81 381.78L451.68 108.53" stroke="#969696" stroke-width="2" stroke-miterlimit="10" stroke-linecap="round" stroke-linejoin="round" stroke-dasharray="0.3 0.3"/>
<path opacity="0.7" d="M198.879 392.71L464.279 115.68" stroke="#969696" stroke-width="2" stroke-miterlimit="10" stroke-linecap="round" stroke-linejoin="round" stroke-dasharray="0.3 0.3"/>
<path opacity="0.7" d="M207.959 403.62L479.699 119.83" stroke="#969696" stroke-width="2" stroke-miterlimit="10" stroke-linecap="round" stroke-linejoin="round" stroke-dasharray="0.3 0.3"/>
<path opacity="0.7" d="M217.319 414.23L492.239 127.05" stroke="#969696" stroke-width="2" stroke-miterlimit="10" stroke-linecap="round" stroke-linejoin="round" stroke-dasharray="0.3 0.3"/>
<path opacity="0.7" d="M225.589 426.02L502.679 136.51" stroke="#969696" stroke-width="2" stroke-miterlimit="10" stroke-linecap="round" stroke-linejoin="round" stroke-dasharray="0.3 0.3"/>
<path opacity="0.7" d="M234.97 436.61L514.46 144.54" stroke="#969696" stroke-width="2" stroke-miterlimit="10" stroke-linecap="round" stroke-linejoin="round" stroke-dasharray="0.3 0.3"/>
<path opacity="0.7" d="M244.919 446.59L526.069 152.76" stroke="#969696" stroke-width="2" stroke-miterlimit="10" stroke-linecap="round" stroke-linejoin="round" stroke-dasharray="0.3 0.3"/>
<path opacity="0.7" d="M253.31 458.24L524.52 175.01" stroke="#969696" stroke-width="2" stroke-miterlimit="10" stroke-linecap="round" stroke-linejoin="round" stroke-dasharray="0.3 0.3"/>
</g>
<g opacity="0.7">
<g opacity="0.7">
<path opacity="0.7" d="M284.24 447.1L505.13 217.59" stroke="#969696" stroke-width="2" stroke-miterlimit="10" stroke-linecap="round" stroke-linejoin="round" stroke-dasharray="0.3 0.3"/>
<path opacity="0.7" d="M286.01 465.82L520.78 221.49" stroke="#969696" stroke-width="2" stroke-miterlimit="10" stroke-linecap="round" stroke-linejoin="round" stroke-dasharray="0.3 0.3"/>
<path opacity="0.7" d="M293.11 478.85L534.52 227.43" stroke="#969696" stroke-width="2" stroke-miterlimit="10" stroke-linecap="round" stroke-linejoin="round" stroke-dasharray="0.3 0.3"/>
<path opacity="0.7" d="M303.08 488.81L549.89 231.62" stroke="#969696" stroke-width="2" stroke-miterlimit="10" stroke-linecap="round" stroke-linejoin="round" stroke-dasharray="0.3 0.3"/>
<path opacity="0.7" d="M310.86 501.11L565.4 235.67" stroke="#969696" stroke-width="2" stroke-miterlimit="10" stroke-linecap="round" stroke-linejoin="round" stroke-dasharray="0.3 0.3"/>
<path opacity="0.7" d="M320 511.97L581.86 238.71" stroke="#969696" stroke-width="2" stroke-miterlimit="10" stroke-linecap="round" stroke-linejoin="round" stroke-dasharray="0.3 0.3"/>
<path opacity="0.7" d="M329.06 522.9L594.46 245.87" stroke="#969696" stroke-width="2" stroke-miterlimit="10" stroke-linecap="round" stroke-linejoin="round" stroke-dasharray="0.3 0.3"/>
<path opacity="0.7" d="M338.14 533.81L609.88 250.02" stroke="#969696" stroke-width="2" stroke-miterlimit="10" stroke-linecap="round" stroke-linejoin="round" stroke-dasharray="0.3 0.3"/>
<path opacity="0.7" d="M347.51 544.42L622.42 257.24" stroke="#969696" stroke-width="2" stroke-miterlimit="10" stroke-linecap="round" stroke-linejoin="round" stroke-dasharray="0.3 0.3"/>
<path opacity="0.7" d="M355.77 556.2L632.87 266.69" stroke="#969696" stroke-width="2" stroke-miterlimit="10" stroke-linecap="round" stroke-linejoin="round" stroke-dasharray="0.3 0.3"/>
<path opacity="0.7" d="M365.15 566.8L644.65 274.73" stroke="#969696" stroke-width="2" stroke-miterlimit="10" stroke-linecap="round" stroke-linejoin="round" stroke-dasharray="0.3 0.3"/>
<path opacity="0.7" d="M375.11 576.77L656.25 282.95" stroke="#969696" stroke-width="2" stroke-miterlimit="10" stroke-linecap="round" stroke-linejoin="round" stroke-dasharray="0.3 0.3"/>
<path opacity="0.7" d="M383.5 588.43L654.71 305.2" stroke="#969696" stroke-width="2" stroke-miterlimit="10" stroke-linecap="round" stroke-linejoin="round" stroke-dasharray="0.3 0.3"/>
</g>
</g>
<path d="M474.71 183.46C477.477 183.46 479.72 181.217 479.72 178.45C479.72 175.683 477.477 173.44 474.71 173.44C471.943 173.44 469.7 175.683 469.7 178.45C469.7 181.217 471.943 183.46 474.71 183.46Z" fill="url(#paint7_linear)"/>
<path d="M474.709 187.03C479.448 187.03 483.289 183.189 483.289 178.45C483.289 173.712 479.448 169.87 474.709 169.87C469.971 169.87 466.129 173.712 466.129 178.45C466.129 183.189 469.971 187.03 474.709 187.03Z" stroke="url(#paint8_linear)" stroke-miterlimit="10"/>
<path d="M365.849 425.35C365.849 428.7 363.129 431.42 359.779 431.42C356.429 431.42 353.709 428.7 353.709 425.35C353.709 422 356.429 419.28 359.779 419.28C363.129 419.28 365.849 421.99 365.849 425.35Z" stroke="url(#paint9_linear)" stroke-miterlimit="10"/>
<path d="M498.91 205.5C505.515 205.5 510.87 200.145 510.87 193.54C510.87 186.935 505.515 181.58 498.91 181.58C492.304 181.58 486.95 186.935 486.95 193.54C486.95 200.145 492.304 205.5 498.91 205.5Z" fill="url(#paint10_linear)"/>
<path d="M161.35 323.16C161.35 326.22 158.87 328.7 155.81 328.7C152.75 328.7 150.27 326.22 150.27 323.16C150.27 320.1 152.75 317.62 155.81 317.62C158.87 317.62 161.35 320.1 161.35 323.16Z" fill="url(#paint11_linear)"/>
<path d="M438.779 164.66L447.699 154.03" stroke="url(#paint12_linear)" stroke-miterlimit="10"/>
<path d="M441.519 166.95L455.529 150.26" stroke="url(#paint13_linear)" stroke-miterlimit="10"/>
<path d="M438.779 175.78L453.169 158.62" stroke="url(#paint14_linear)" stroke-miterlimit="10"/>
<path d="M166.66 288.42L175.57 277.79" stroke="url(#paint15_linear)" stroke-miterlimit="10"/>
<path d="M169.39 290.72L183.4 274.02" stroke="url(#paint16_linear)" stroke-miterlimit="10"/>
<path d="M166.66 299.54L181.04 282.38" stroke="url(#paint17_linear)" stroke-miterlimit="10"/>
<path d="M464.02 347.91L475.4 334.33" stroke="url(#paint18_linear)" stroke-miterlimit="10"/>
<path d="M467.51 350.84L485.4 329.51" stroke="url(#paint19_linear)" stroke-miterlimit="10"/>
<path d="M464.02 362.11L482.4 340.2" stroke="url(#paint20_linear)" stroke-miterlimit="10"/>
<g opacity="0.5">
<path opacity="0.5" d="M445.56 110.85L432.2 125.74" stroke="url(#paint21_linear)" stroke-miterlimit="10"/>
<path opacity="0.5" d="M449.39 114.29L428.41 137.68" stroke="url(#paint22_linear)" stroke-miterlimit="10"/>
<path opacity="0.5" d="M461.43 108.59L439.87 132.62" stroke="url(#paint23_linear)" stroke-miterlimit="10"/>
</g>
<path d="M161.35 341.45L178.3 321.24" stroke="url(#paint24_linear)" stroke-miterlimit="10"/>
<path d="M166.55 345.81L193.18 314.07" stroke="url(#paint25_linear)" stroke-miterlimit="10"/>
<path d="M161.35 362.59L188.7 329.97" stroke="url(#paint26_linear)" stroke-miterlimit="10"/>
<path d="M193.18 297.62C195.019 297.62 196.51 296.129 196.51 294.29C196.51 292.451 195.019 290.96 193.18 290.96C191.34 290.96 189.85 292.451 189.85 294.29C189.85 296.129 191.34 297.62 193.18 297.62Z" fill="white"/>
<path d="M195.369 364.21C195.369 366.05 193.879 367.54 192.039 367.54C190.199 367.54 188.709 366.05 188.709 364.21C188.709 362.37 190.199 360.88 192.039 360.88C193.879 360.88 195.369 362.37 195.369 364.21Z" fill="white"/>
<path d="M177.93 202.71C177.93 203.56 177.24 204.25 176.39 204.25C175.54 204.25 174.85 203.56 174.85 202.71C174.85 201.86 175.54 201.17 176.39 201.17C177.24 201.18 177.93 201.86 177.93 202.71Z" fill="white"/>
<path d="M473.209 247.22C474.06 247.22 474.749 246.531 474.749 245.68C474.749 244.83 474.06 244.14 473.209 244.14C472.359 244.14 471.669 244.83 471.669 245.68C471.669 246.531 472.359 247.22 473.209 247.22Z" fill="white"/>
<path d="M488.479 384.29C488.479 385.14 487.789 385.83 486.939 385.83C486.089 385.83 485.399 385.14 485.399 384.29C485.399 383.44 486.089 382.75 486.939 382.75C487.789 382.76 488.479 383.44 488.479 384.29Z" fill="white"/>
<path d="M161.35 181.78C163.189 181.78 164.68 180.289 164.68 178.45C164.68 176.611 163.189 175.12 161.35 175.12C159.51 175.12 158.02 176.611 158.02 178.45C158.02 180.289 159.51 181.78 161.35 181.78Z" fill="white"/>
<path d="M252.019 399.88C252.019 401.72 250.529 403.21 248.689 403.21C246.849 403.21 245.359 401.72 245.359 399.88C245.359 398.04 246.849 396.55 248.689 396.55C250.529 396.55 252.019 398.04 252.019 399.88Z" fill="white"/>
<path d="M467.349 397.87C467.349 399.71 465.859 401.2 464.019 401.2C462.179 401.2 460.689 399.71 460.689 397.87C460.689 396.03 462.179 394.54 464.019 394.54C465.859 394.54 467.349 396.03 467.349 397.87Z" fill="white"/>
<path d="M524.36 299.54C524.36 301.38 522.87 302.87 521.03 302.87C519.19 302.87 517.7 301.38 517.7 299.54C517.7 297.7 519.19 296.21 521.03 296.21C522.87 296.2 524.36 297.7 524.36 299.54Z" fill="white"/>
<path d="M124.1 253.88C125.939 253.88 127.43 252.389 127.43 250.55C127.43 248.711 125.939 247.22 124.1 247.22C122.26 247.22 120.77 248.711 120.77 250.55C120.77 252.389 122.26 253.88 124.1 253.88Z" fill="white"/>
<path d="M218.279 403.28L227.479 407.02L231.619 392.72L218.279 403.28Z" fill="#FF7E3D"/>
<path d="M193.18 391.34L200.66 410.44L229.37 385.3L193.18 391.34Z" fill="url(#paint27_linear)"/>
<path d="M517.25 234.09L513.24 254.21L480.56 234.5L517.25 234.09Z" fill="#FF7E3D"/>
<path d="M187.239 157.58L175.069 166.11L189.709 173.68L187.239 157.58Z" fill="#FF7E3D"/>
<path d="M485.479 267.87L471.649 262.44L473.429 278.82L485.479 267.87Z" fill="url(#paint28_linear)"/>
<path d="M358.75 122.11C345.3 114.63 328.64 109.71 313.36 114.09C301.5 117.49 292.55 126.35 285.79 136.33C278.18 147.56 272.82 160.15 267.14 172.42C263.66 179.93 259.87 187.15 254.79 193.73C249.33 200.81 242.83 207.09 235.58 212.31C228.08 217.7 219.82 221.91 211.06 224.82C201.07 228.14 190.69 229.98 180.44 232.3C163.59 236.13 145.72 242.08 134.69 256.26C129.81 262.53 126.91 270.13 126.78 278.1C126.64 286.28 129.26 294.34 133.39 301.34C142.76 317.25 159.05 326.35 176.05 332.18C194.25 338.42 213.46 341.39 231.28 348.79C240.18 352.49 248.7 357.34 255.76 363.97C262.76 370.55 268.17 378.56 272.98 386.82C282.05 402.42 289.35 419.43 302.42 432.26C308.45 438.18 315.66 442.97 323.8 445.41C331.98 447.85 340.72 447.85 349.03 446.08C388.08 437.75 405.46 398.4 421.2 366.09C430 348.03 439.76 330.45 454.59 316.6C468.91 303.23 486 293.03 499.35 278.59C511.21 265.77 520.13 249.35 518.04 231.38C516.05 214.3 505.42 199.19 492.38 188.5C477.36 176.19 458.78 168.99 440.74 162.37C431.06 158.82 421.26 155.51 411.86 151.25C402.58 147.04 393.66 142.11 384.85 137.01C380.64 134.57 376.46 132.09 372.26 129.63C367.8 127.02 363.17 124.76 358.66 122.25C358.31 122.05 357.99 122.59 358.34 122.79C362.84 125.29 367.12 128.2 371.56 130.81C375.76 133.27 379.94 135.75 384.15 138.19C392.76 143.18 401.48 148 410.53 152.14C428.48 160.36 447.66 165.51 465.56 173.87C482.25 181.66 497.95 192.12 507.97 207.94C512.57 215.2 515.85 223.4 516.75 231.98C517.69 240.93 515.89 249.88 512.07 257.99C504.07 274.98 489.16 287.1 474.65 298.37C466.95 304.35 459.17 310.28 452.14 317.05C445.34 323.59 439.49 330.98 434.41 338.92C424.05 355.11 416.8 372.99 407.91 389.98C399.23 406.56 388.61 423.16 372.99 434.02C358.56 444.05 339.55 449.43 322.44 443.55C305.6 437.76 294.47 422.43 285.99 407.59C276.99 391.83 269.51 374.54 255.78 362.16C242.22 349.94 224.39 344.16 207.09 339.54C188.81 334.66 169.72 330.66 153.6 320.24C139.38 311.05 127.56 295.15 128.12 277.56C128.68 259.74 143.08 247.21 158.32 240.49C176.61 232.42 197.13 231.71 215.73 224.55C231.31 218.55 245.12 208.21 255.39 195.07C264.51 183.41 269.65 169.52 276.06 156.32C281.59 144.93 287.86 133.25 297.35 124.63C307.15 115.72 319.73 112.36 332.77 114.18C341.76 115.43 350.31 118.63 358.26 122.96C358.8 123.23 359.28 122.41 358.75 122.11Z" fill="url(#paint29_linear)"/>
<g opacity="0.4248">
<path opacity="0.4248" d="M363.95 93.15C348.57 84.6 329.51 78.98 312.04 84C298.49 87.89 288.26 98.02 280.54 109.42C271.83 122.28 265.7 136.69 259.19 150.73C255.2 159.34 250.86 167.6 245.05 175.14C238.8 183.25 231.35 190.46 223.03 196.43C214.44 202.61 204.97 207.43 194.94 210.76C183.51 214.56 171.62 216.66 159.89 219.33C140.62 223.71 120.17 230.51 107.55 246.73C101.98 253.89 98.6798 262.57 98.5198 271.67C98.3598 281.02 101.36 290.22 106.07 298.22C116.78 316.41 135.41 326.82 154.85 333.48C175.69 340.62 197.68 344.02 218.08 352.49C228.29 356.73 238.06 362.29 246.15 369.89C254.17 377.42 260.37 386.6 265.88 396.07C276.25 413.92 284.61 433.39 299.57 448.07C306.46 454.84 314.69 460.31 324 463.1C333.35 465.89 343.33 465.89 352.83 463.87C397.5 454.34 417.38 409.31 435.39 372.34C445.47 351.66 456.64 331.52 473.64 315.66C490.04 300.36 509.6 288.68 524.88 272.15C538.44 257.49 548.64 238.72 546.24 218.17C543.96 198.65 531.8 181.37 516.89 169.15C499.71 155.07 478.45 146.83 457.82 139.26C446.73 135.19 435.5 131.4 424.73 126.52C414.11 121.7 403.89 116.06 393.81 110.21C388.99 107.42 384.2 104.58 379.4 101.76C374.3 98.77 369.02 96.14 363.86 93.27C363.51 93.07 363.19 93.61 363.54 93.81C368.69 96.67 373.62 99.96 378.71 102.94C383.51 105.76 388.31 108.59 393.12 111.39C402.97 117.1 412.95 122.62 423.31 127.36C443.86 136.77 465.82 142.66 486.31 152.23C505.43 161.16 523.41 173.14 534.9 191.26C540.17 199.58 543.93 208.99 544.96 218.83C546.04 229.1 543.97 239.35 539.58 248.66C530.41 268.12 513.34 282 496.73 294.91C487.91 301.76 479.01 308.54 470.96 316.29C463.18 323.77 456.49 332.23 450.68 341.31C438.82 359.85 430.52 380.32 420.34 399.77C410.39 418.77 398.23 437.78 380.33 450.22C363.79 461.71 341.99 467.88 322.38 461.13C303.08 454.49 290.31 436.93 280.59 419.91C270.29 401.88 261.73 382.09 246.02 367.92C230.51 353.94 210.11 347.33 190.32 342.05C169.39 336.46 147.52 331.87 129.07 319.95C112.77 309.42 99.2198 291.18 99.8498 271.01C100.49 250.58 117 236.2 134.47 228.49C155.41 219.25 178.92 218.44 200.22 210.23C218.03 203.37 233.83 191.53 245.58 176.51C256.02 163.16 261.9 147.27 269.23 132.17C275.57 119.12 282.75 105.75 293.62 95.87C304.87 85.65 319.29 81.8 334.26 83.9C344.56 85.34 354.35 89 363.45 93.97C364.01 94.26 364.49 93.44 363.95 93.15Z" fill="url(#paint30_linear)"/>
</g>
<path d="M436.33 319.28C448.11 306.55 463.01 297.41 475.87 285.89C487.08 275.85 497.38 263.09 499.9 247.84C502.32 233.12 496.6 218.64 487.37 207.33C477.09 194.73 462.78 186.55 448.04 180.19C431.93 173.24 414.92 168.51 399.12 160.83C383.38 153.17 368.92 143.25 353.41 135.2C341.66 129.1 327.23 125.37 314.16 129.14C304.1 132.04 296.3 139.28 290.32 147.62C283.49 157.14 278.68 167.96 273.81 178.55C271.02 184.63 268.29 190.73 264.62 196.35C260.51 202.63 255.54 208.34 249.91 213.3C244.14 218.39 237.66 222.67 230.72 225.98C222.73 229.79 214.14 232.02 205.53 233.93C189.87 237.4 173.55 240.2 160.4 250.06C154.87 254.21 150.09 259.49 147.3 265.88C144.51 272.26 143.95 279.33 145.36 286.13C148.39 300.71 159.09 312.45 171.72 319.69C200.26 336.06 238.16 333.25 262.68 357.15C274.58 368.75 281.03 384.37 289.33 398.46C296.7 410.98 306.19 423.43 320.06 429.06C334.21 434.81 350.33 431.81 363.36 424.59C377.45 416.79 387.77 403.91 395.87 390.27C397.91 386.83 399.83 383.33 401.67 379.78C403.57 376.13 405.03 372.31 406.82 368.61C406.99 368.25 406.46 367.93 406.28 368.29C404.51 371.96 402.37 375.47 400.49 379.08C398.6 382.71 396.64 386.31 394.54 389.83C390.41 396.76 385.78 403.41 380.3 409.34C369.73 420.78 355.48 429.38 339.69 430.6C332.1 431.19 324.44 429.9 317.61 426.48C310.94 423.14 305.32 418.09 300.56 412.4C290.53 400.41 284.53 385.83 276.37 372.62C272.31 366.05 267.67 359.77 261.92 354.58C256.14 349.36 249.37 345.36 242.27 342.23C227.68 335.79 211.93 332.89 196.71 328.36C181.55 323.85 166.14 317.4 155.97 304.76C146.76 293.31 142.39 277.35 149.83 263.84C157.05 250.73 171.72 243.75 185.56 239.94C201.75 235.48 218.72 233.79 233.82 225.96C246.56 219.36 257.57 209.45 265.49 197.49C272.25 187.29 276.42 175.51 281.9 164.61C286.74 155 292.33 145.26 300.57 138.14C309.11 130.76 319.9 127.97 331.03 129.37C347.64 131.45 361.68 141.36 375.79 149.6C383.22 153.94 390.71 158.2 398.46 161.96C405.93 165.59 413.63 168.54 421.43 171.37C450.45 181.94 485.85 194.15 496.77 226.45C499.18 233.57 499.89 241.19 498.48 248.59C497.04 256.13 493.61 263.13 489.2 269.37C479.78 282.73 466.34 292.19 453.7 302.23C447.33 307.29 441.13 312.57 435.66 318.6C435.25 319.06 435.92 319.73 436.33 319.28Z" fill="url(#paint31_linear)"/>
</g>
<defs>
<linearGradient id="paint0_linear" x1="222.208" y1="448.907" x2="79.5235" y2="552.863" gradientUnits="userSpaceOnUse">
<stop offset="0.1031" stop-color="#2F3E41"/>
<stop offset="0.3506" stop-color="#273132"/>
<stop offset="0.714" stop-color="#1E2422"/>
<stop offset="0.9948" stop-color="#1B1F1C"/>
</linearGradient>
<linearGradient id="paint1_linear" x1="415.728" y1="29.8411" x2="640.637" y2="29.8411" gradientUnits="userSpaceOnUse">
<stop offset="0.1031" stop-color="#2F3E41"/>
<stop offset="0.3506" stop-color="#273132"/>
<stop offset="0.714" stop-color="#1E2422"/>
<stop offset="0.9948" stop-color="#1B1F1C"/>
</linearGradient>
<linearGradient id="paint2_linear" x1="-91.0076" y1="68.7663" x2="19.8702" y2="68.7663" gradientUnits="userSpaceOnUse">
<stop stop-color="#5C5A44"/>
<stop offset="0.6103" stop-color="#3F4541"/>
<stop offset="1" stop-color="#313C40"/>
</linearGradient>
<linearGradient id="paint3_linear" x1="-73.982" y1="100.721" x2="42.1243" y2="100.721" gradientUnits="userSpaceOnUse">
<stop stop-color="#5C5A44"/>
<stop offset="0.6103" stop-color="#3F4541"/>
<stop offset="1" stop-color="#313C40"/>
</linearGradient>
<linearGradient id="paint4_linear" x1="545.56" y1="464.471" x2="764.023" y2="464.471" gradientUnits="userSpaceOnUse">
<stop stop-color="#5C5A44"/>
<stop offset="0.6103" stop-color="#3F4541"/>
<stop offset="1" stop-color="#313C40"/>
</linearGradient>
<linearGradient id="paint5_linear" x1="585.664" y1="467.219" x2="723.731" y2="467.219" gradientUnits="userSpaceOnUse">
<stop stop-color="#5C5A44"/>
<stop offset="0.6103" stop-color="#3F4541"/>
<stop offset="1" stop-color="#313C40"/>
</linearGradient>
<linearGradient id="paint6_linear" x1="628.406" y1="470.839" x2="713.298" y2="470.839" gradientUnits="userSpaceOnUse">
<stop stop-color="#5C5A44"/>
<stop offset="0.6103" stop-color="#3F4541"/>
<stop offset="1" stop-color="#313C40"/>
</linearGradient>
<linearGradient id="paint7_linear" x1="469.704" y1="178.454" x2="479.714" y2="178.454" gradientUnits="userSpaceOnUse">
<stop offset="0.0277" stop-color="#FFD24D"/>
<stop offset="0.7154" stop-color="#F6BE56"/>
<stop offset="1" stop-color="#F2B45A"/>
</linearGradient>
<linearGradient id="paint8_linear" x1="465.626" y1="178.454" x2="483.791" y2="178.454" gradientUnits="userSpaceOnUse">
<stop offset="0.0277" stop-color="#FFD24D"/>
<stop offset="0.7154" stop-color="#F6BE56"/>
<stop offset="1" stop-color="#F2B45A"/>
</linearGradient>
<linearGradient id="paint9_linear" x1="353.207" y1="425.346" x2="366.344" y2="425.346" gradientUnits="userSpaceOnUse">
<stop offset="0.0277" stop-color="#FFD24D"/>
<stop offset="0.7154" stop-color="#F6BE56"/>
<stop offset="1" stop-color="#F2B45A"/>
</linearGradient>
<linearGradient id="paint10_linear" x1="486.945" y1="193.544" x2="510.871" y2="193.544" gradientUnits="userSpaceOnUse">
<stop offset="0.0277" stop-color="#FFD24D"/>
<stop offset="0.7154" stop-color="#F6BE56"/>
<stop offset="1" stop-color="#F2B45A"/>
</linearGradient>
<linearGradient id="paint11_linear" x1="150.277" y1="323.157" x2="161.349" y2="323.157" gradientUnits="userSpaceOnUse">
<stop offset="0.0277" stop-color="#FFD24D"/>
<stop offset="0.7154" stop-color="#F6BE56"/>
<stop offset="1" stop-color="#F2B45A"/>
</linearGradient>
<linearGradient id="paint12_linear" x1="438.004" y1="159.803" x2="448.479" y2="158.885" gradientUnits="userSpaceOnUse">
<stop offset="0.0277" stop-color="#FFD24D"/>
<stop offset="0.7154" stop-color="#F6BE56"/>
<stop offset="1" stop-color="#F2B45A"/>
</linearGradient>
<linearGradient id="paint13_linear" x1="440.496" y1="159.309" x2="456.552" y2="157.902" gradientUnits="userSpaceOnUse">
<stop offset="0.0277" stop-color="#FFD24D"/>
<stop offset="0.7154" stop-color="#F6BE56"/>
<stop offset="1" stop-color="#F2B45A"/>
</linearGradient>
<linearGradient id="paint14_linear" x1="437.741" y1="167.921" x2="454.217" y2="166.477" gradientUnits="userSpaceOnUse">
<stop offset="0.0277" stop-color="#FFD24D"/>
<stop offset="0.7154" stop-color="#F6BE56"/>
<stop offset="1" stop-color="#F2B45A"/>
</linearGradient>
<linearGradient id="paint15_linear" x1="166.272" y1="283.105" x2="175.953" y2="283.105" gradientUnits="userSpaceOnUse">
<stop offset="0.0277" stop-color="#FFD24D"/>
<stop offset="0.1674" stop-color="#EBC34D"/>
<stop offset="0.4544" stop-color="#B69D4D"/>
<stop offset="0.8604" stop-color="#625F4E"/>
<stop offset="1" stop-color="#44494E"/>
</linearGradient>
<linearGradient id="paint16_linear" x1="169.009" y1="282.367" x2="183.781" y2="282.367" gradientUnits="userSpaceOnUse">
<stop offset="0.0277" stop-color="#FFD24D"/>
<stop offset="0.1674" stop-color="#EBC34D"/>
<stop offset="0.4544" stop-color="#B69D4D"/>
<stop offset="0.8604" stop-color="#625F4E"/>
<stop offset="1" stop-color="#44494E"/>
</linearGradient>
<linearGradient id="paint17_linear" x1="166.272" y1="290.961" x2="181.428" y2="290.961" gradientUnits="userSpaceOnUse">
<stop offset="0.0277" stop-color="#FFD24D"/>
<stop offset="0.1674" stop-color="#EBC34D"/>
<stop offset="0.4544" stop-color="#B69D4D"/>
<stop offset="0.8604" stop-color="#625F4E"/>
<stop offset="1" stop-color="#44494E"/>
</linearGradient>
<linearGradient id="paint18_linear" x1="463.116" y1="341.698" x2="476.302" y2="340.543" gradientUnits="userSpaceOnUse">
<stop offset="0.0277" stop-color="#FFD24D"/>
<stop offset="0.7154" stop-color="#F6BE56"/>
<stop offset="1" stop-color="#F2B45A"/>
</linearGradient>
<linearGradient id="paint19_linear" x1="466.3" y1="341.067" x2="486.614" y2="339.287" gradientUnits="userSpaceOnUse">
<stop offset="0.0277" stop-color="#FFD24D"/>
<stop offset="0.7154" stop-color="#F6BE56"/>
<stop offset="1" stop-color="#F2B45A"/>
</linearGradient>
<linearGradient id="paint20_linear" x1="462.78" y1="352.069" x2="483.631" y2="350.242" gradientUnits="userSpaceOnUse">
<stop offset="0.0277" stop-color="#FFD24D"/>
<stop offset="0.7154" stop-color="#F6BE56"/>
<stop offset="1" stop-color="#F2B45A"/>
</linearGradient>
<linearGradient id="paint21_linear" x1="438.477" y1="110.884" x2="439.281" y2="125.712" gradientUnits="userSpaceOnUse">
<stop offset="0.0277" stop-color="#FFD24D"/>
<stop offset="0.7154" stop-color="#F6BE56"/>
<stop offset="1" stop-color="#F2B45A"/>
</linearGradient>
<linearGradient id="paint22_linear" x1="438.279" y1="114.543" x2="439.52" y2="137.437" gradientUnits="userSpaceOnUse">
<stop offset="0.0277" stop-color="#FFD24D"/>
<stop offset="0.7154" stop-color="#F6BE56"/>
<stop offset="1" stop-color="#F2B45A"/>
</linearGradient>
<linearGradient id="paint23_linear" x1="450.014" y1="108.857" x2="451.287" y2="132.359" gradientUnits="userSpaceOnUse">
<stop offset="0.0277" stop-color="#FFD24D"/>
<stop offset="0.7154" stop-color="#F6BE56"/>
<stop offset="1" stop-color="#F2B45A"/>
</linearGradient>
<linearGradient id="paint24_linear" x1="160.183" y1="332.19" x2="179.462" y2="330.501" gradientUnits="userSpaceOnUse">
<stop offset="0.0277" stop-color="#FFD24D"/>
<stop offset="0.1674" stop-color="#EBC34D"/>
<stop offset="0.4544" stop-color="#B69D4D"/>
<stop offset="0.8604" stop-color="#625F4E"/>
<stop offset="1" stop-color="#44494E"/>
</linearGradient>
<linearGradient id="paint25_linear" x1="164.922" y1="331.251" x2="194.809" y2="328.632" gradientUnits="userSpaceOnUse">
<stop offset="0.0277" stop-color="#FFD24D"/>
<stop offset="0.1674" stop-color="#EBC34D"/>
<stop offset="0.4544" stop-color="#B69D4D"/>
<stop offset="0.8604" stop-color="#625F4E"/>
<stop offset="1" stop-color="#44494E"/>
</linearGradient>
<linearGradient id="paint26_linear" x1="159.683" y1="347.624" x2="190.37" y2="344.935" gradientUnits="userSpaceOnUse">
<stop offset="0.0277" stop-color="#FFD24D"/>
<stop offset="0.1674" stop-color="#EBC34D"/>
<stop offset="0.4544" stop-color="#B69D4D"/>
<stop offset="0.8604" stop-color="#625F4E"/>
<stop offset="1" stop-color="#44494E"/>
</linearGradient>
<linearGradient id="paint27_linear" x1="193.178" y1="397.871" x2="229.37" y2="397.871" gradientUnits="userSpaceOnUse">
<stop offset="0.0277" stop-color="#FFD24D"/>
<stop offset="0.7154" stop-color="#FFBE56"/>
<stop offset="1" stop-color="#FFB45A"/>
</linearGradient>
<linearGradient id="paint28_linear" x1="469.963" y1="264.188" x2="479.841" y2="273.715" gradientUnits="userSpaceOnUse">
<stop offset="0.0277" stop-color="#FFD24D"/>
<stop offset="0.7154" stop-color="#F6BE56"/>
<stop offset="1" stop-color="#F2B45A"/>
</linearGradient>
<linearGradient id="paint29_linear" x1="148.968" y1="346.714" x2="513.254" y2="214.124" gradientUnits="userSpaceOnUse">
<stop offset="0.0277" stop-color="#FFD24D"/>
<stop offset="0.0356" stop-color="#F7CC4C"/>
<stop offset="0.0797" stop-color="#CEAE4A"/>
<stop offset="0.1292" stop-color="#A89348"/>
<stop offset="0.1831" stop-color="#887B45"/>
<stop offset="0.2427" stop-color="#6C6744"/>
<stop offset="0.3099" stop-color="#565742"/>
<stop offset="0.3884" stop-color="#454B41"/>
<stop offset="0.4856" stop-color="#3A4241"/>
<stop offset="0.6218" stop-color="#333D40"/>
<stop offset="1" stop-color="#313C40"/>
</linearGradient>
<linearGradient id="paint30_linear" x1="98.5186" y1="273.707" x2="546.597" y2="273.707" gradientUnits="userSpaceOnUse">
<stop stop-color="#5C5A44"/>
<stop offset="0.6103" stop-color="#3F4541"/>
<stop offset="1" stop-color="#313C40"/>
</linearGradient>
<linearGradient id="paint31_linear" x1="237.23" y1="172.507" x2="427.927" y2="363.204" gradientUnits="userSpaceOnUse">
<stop stop-color="#313C40"/>
<stop offset="0.251" stop-color="#333E40"/>
<stop offset="0.397" stop-color="#3C4441"/>
<stop offset="0.5161" stop-color="#4A4E42"/>
<stop offset="0.6208" stop-color="#5E5D43"/>
<stop offset="0.716" stop-color="#786F44"/>
<stop offset="0.8042" stop-color="#988746"/>
<stop offset="0.8873" stop-color="#BDA249"/>
<stop offset="0.964" stop-color="#E8C14C"/>
<stop offset="1" stop-color="#FFD24D"/>
</linearGradient>
<clipPath id="clip0">
<rect width="713" height="569" fill="white"/>
</clipPath>
</defs>
</svg>
